<svg xmlns="http://www.w3.org/2000/svg" xmlns:xlink="http://www.w3.org/1999/xlink" viewBox="0 0 465.96 233.23"><defs><style>.cls-1{fill:none;}.cls-2{clip-path:url(#clip-path);}.cls-3{fill:#fd6b6b;}.cls-4{fill:#e6a7e5;}.cls-5{fill:#007b7e;}.cls-6{fill:#e4a06b;}.cls-7{fill:#ffe3d1;}</style><clipPath id="clip-path" transform="translate(58.13 34.73)"><rect class="cls-1" width="374.78" height="149.32" rx="74.66"/></clipPath></defs><title>logo-ecofff.svgRecurso 9</title><g id="Capa_2" data-name="Capa 2"><g id="Layer_1" data-name="Layer 1"><g class="cls-2"><path class="cls-3" d="M24.91,130.33Q155,122,285.65,122.14q36.86,0,73.7.75c12.23.23,25.68-4.45,34.26-11.25C402,105,408.34,94,407.8,84.47c-.56-9.93-4.68-20.23-14.19-27.16a59,59,0,0,0-34.26-11.25q-130.53-2.49-261,3.42-36.73,1.68-73.42,4a44.6,44.6,0,0,0-18.67,3.3,38.3,38.3,0,0,0-15.59,8c-8.41,6.66-14.74,17.59-14.2,27.16.57,9.93,4.68,20.24,14.2,27.16,9,6.57,21.56,12.06,34.26,11.25Z" transform="translate(58.13 34.73)"/><path class="cls-4" d="M-4.44,86.55Q69.75,74.41,144.87,66.4L133.6,67.6Q217.68,58.68,302.45,55q24-1,48.08-1.65c11.09-.29,22.05-3.56,30-9.85,7.35-5.83,12.89-15.39,12.42-23.76C392.44,11,388.84,2,380.51-4c-8.14-5.92-18.63-10.14-30-9.84A2811.58,2811.58,0,0,0,53.68,9.78Q13.21,15.14-27,21.73c-10,1.64-20.29,8.62-25.33,15.45-5.32,7.2-7.57,17.82-4.28,25.9A36.31,36.31,0,0,0-37.1,83.16c10.46,4.38,21,5.3,32.66,3.39Z" transform="translate(58.13 34.73)"/><path class="cls-5" d="M-9.27,37.43Q64.92,25.3,140,17.28L133.6,18Q217.68,9,302.45,5.34q24-1,48.08-1.65c12.66-.32,24.83-8.6,24.23-19.2-.57-10.13-10.66-19.56-24.23-19.21a2765.66,2765.66,0,0,0-292,23.16Q18-6.2-22.15.39c-12.43,2-20.76,14.2-16.92,23.63,4.26,10.43,16.49,15.59,29.8,13.41Z" transform="translate(58.13 34.73)"/><path class="cls-6" d="M23.12,196.57l9.39-1-12.88,1.37a1527,1527,0,0,1,252-5.88q35.41,2.11,70.64,5.87l-12.88-1.37q7.05.75,14.07,1.57a46,46,0,0,0,19.32.69,43.16,43.16,0,0,0,18-4.56c10.05-4.66,19.63-13.8,22.26-23,2.83-9.83,2.22-20.87-4.88-29.6l-7.58-7.77A52.44,52.44,0,0,0,369.26,123c-94-10.9-188.88-14.47-283.71-8.52-29.51,1.85-58.88,4.69-88.19,8a40.34,40.34,0,0,0-16.47,6.88,32.84,32.84,0,0,0-12.48,10.78c-6.08,8.23-8.65,20.36-4.89,29.59a41.52,41.52,0,0,0,22.27,23l11.57,3.87a61.12,61.12,0,0,0,25.76,0Z" transform="translate(58.13 34.73)"/><path class="cls-7" d="M40,77.64q.47,10.19,4.22,17.21A30.8,30.8,0,0,0,55.73,107a30.46,30.46,0,0,0,15.92,4.33q17.68,0,27.88-16.39,2-3.28,4.1-3.28c.62,0,2,.58,4,1.76l3.51,2q4.22,2.34,4.22,4.45a6.72,6.72,0,0,1-1.41,3.39q-15.45,23.55-42.86,23.54-23.89,0-37.95-17.33Q22,95.68,22,74.71q0-24.24,14.17-38.88Q49.52,22,70.25,22q21,0,34.2,14.28t13.23,37c0,1.72-.43,2.87-1.29,3.46s-2.54.88-5,.88ZM99.64,63.23a34.78,34.78,0,0,0-5.73-13.94A27.76,27.76,0,0,0,70.48,37.47a28.13,28.13,0,0,0-19.15,7.26,31.09,31.09,0,0,0-10.24,18.5Z" transform="translate(58.13 34.73)"/><path class="cls-7" d="M221.44,36.06v6.68q0,5.85-3.86,5.85a5.19,5.19,0,0,1-2.81-1.4,54.23,54.23,0,0,0-12.48-7.62,32.48,32.48,0,0,0-12-2.1q-16.15,0-26.23,11.82a37.18,37.18,0,0,0-9.14,25.18q0,15.35,9.84,26.12t25.18,10.66a33.31,33.31,0,0,0,12.53-2.17q5.39-2.16,13-8.26a4.89,4.89,0,0,1,2.69-1.28q3.87,0,3.87,5.62v6.67q0,4.33-1.41,5.51a44.72,44.72,0,0,1-13.93,6.85,54.38,54.38,0,0,1-16.28,2.63q-25.53,0-40.88-18.62a51.19,51.19,0,0,1-12.06-33.49,51.78,51.78,0,0,1,16.05-38.3Q168,22,190.53,22a59.06,59.06,0,0,1,16.63,2.51q8.53,2.52,13,6.27Q221.44,31.84,221.44,36.06Z" transform="translate(58.13 34.73)"/><path class="cls-7" d="M294.52,22q23.55,0,39.12,17.09,13.47,14.76,13.47,35.26,0,23.88-17.45,39.35-14.76,13.11-35.49,13.11a52,52,0,0,1-26.7-7.26A50.66,50.66,0,0,1,248,99.07a53.6,53.6,0,0,1-6.09-25.53q0-21.8,16.39-37.36Q273.33,22,294.52,22Zm-.47,15.46q-16.74,0-26.81,12.88-7.86,9.94-7.85,24.83,0,15.93,10.42,26.35,9.84,9.84,24.6,9.83,17.2,0,27.52-12.76,7.72-9.72,7.73-24.13,0-16.86-10.54-27.17Q309.16,37.46,294.05,37.47Z" transform="translate(58.13 34.73)"/></g></g></g></svg>