<svg xmlns="http://www.w3.org/2000/svg" viewBox="0 0 664.27 161.65"><defs><style>.cls-1{fill:#fff;}</style></defs><title>logo-ecofff.svgRecurso 4</title><g id="Capa_2" data-name="Capa 2"><g id="Layer_1" data-name="Layer 1"><path class="cls-1" d="M199.48,87.2q.71,15.42,6.38,26.06a46.68,46.68,0,0,0,17.38,18.43,46,46,0,0,0,24.1,6.56q26.78,0,42.19-24.82c2-3.3,4.08-5,6.21-5q1.41,0,6,2.66l5.32,3q6.38,3.56,6.38,6.74,0,2-2.13,5.14-23.38,35.63-64.87,35.63-36.17,0-57.44-26.24-16.85-20.91-16.84-52.64,0-36.7,21.45-58.86Q213.83,3,245.22,3,276.95,3,297,24.63t20,56q0,3.9-1.95,5.23t-7.62,1.33Zm90.23-21.81Q287.22,52.82,281,44.3,267.73,26.4,245.57,26.4a42.53,42.53,0,0,0-29,11,47.05,47.05,0,0,0-15.51,28Z"/><path class="cls-1" d="M474.06,24.27V34.38q0,8.85-5.84,8.86-1.61,0-4.26-2.13-10.81-8.32-18.88-11.52a49,49,0,0,0-18.17-3.19q-24.46,0-39.71,17.9-13.81,16-13.82,38.11,0,23.24,14.89,39.53,14.88,16.14,38.11,16.13a50.55,50.55,0,0,0,19-3.28q8.14-3.27,19.67-12.49,2.49-2,4.08-2,5.85,0,5.85,8.51V139q0,6.56-2.13,8.33-8.32,6.39-21.09,10.37a82.44,82.44,0,0,1-24.64,4q-38.64,0-61.87-28.19A77.46,77.46,0,0,1,347,82.77q0-34,24.28-58,22-21.79,56-21.8a89,89,0,0,1,25.17,3.81q12.93,3.81,19.67,9.48Q474.06,17.9,474.06,24.27Z"/><path class="cls-1" d="M584.68,3q35.63,0,59.2,25.88,20.39,22.34,20.39,53.35,0,36.17-26.41,59.57-22.33,19.84-53.71,19.85a78.66,78.66,0,0,1-40.42-11,76.7,76.7,0,0,1-29.43-31A81.19,81.19,0,0,1,505.09,81q0-33,24.81-56.55Q552.6,3,584.68,3ZM584,26.4q-25.35,0-40.59,19.5Q531.5,61,531.5,83.48q0,24.1,15.78,39.88,14.88,14.89,37.22,14.89,26.06,0,41.66-19.32,11.7-14.72,11.7-36.52,0-25.53-16-41.12Q606.84,26.4,584,26.4Z"/><path class="cls-1" d="M10.83,46.23c0-9.78,3.32-18.77,9.34-25.3a31.23,31.23,0,0,1,23.22-10.1,29,29,0,0,1,18.08,6.25A38.63,38.63,0,0,1,69,25l2.7,3.73a1.56,1.56,0,0,0,2.54,0L77,25a38.37,38.37,0,0,1,7.54-7.89,29,29,0,0,1,18.08-6.25,31.23,31.23,0,0,1,23.22,10.1c6,6.53,9.34,15.52,9.34,25.3a38.15,38.15,0,0,1-.7,7.28,1.56,1.56,0,0,0,.58,1.54q2.9,2.19,5.64,4.61a1.58,1.58,0,0,0,2.58-.77,47.42,47.42,0,0,0,1.69-12.66c0-12.25-4.23-23.59-11.93-31.94A40.9,40.9,0,0,0,102.57,1,38.56,38.56,0,0,0,78.5,9.33a45.6,45.6,0,0,0-4.39,3.89,1.59,1.59,0,0,1-2.26,0,44.43,44.43,0,0,0-4.39-3.89A38.54,38.54,0,0,0,43.39,1,40.9,40.9,0,0,0,13,14.29C5.27,22.64,1,34,1,46.23A47.41,47.41,0,0,0,2.8,59.16a1.58,1.58,0,0,0,2.58.77c1.83-1.62,3.71-3.15,5.62-4.62a1.54,1.54,0,0,0,.58-1.55A37.64,37.64,0,0,1,10.83,46.23Z"/><path class="cls-1" d="M4.33,61.36a2.74,2.74,0,0,1-.74-.1,2.61,2.61,0,0,1-1.78-1.82A48,48,0,0,1,0,46.23c0-12.51,4.34-24.1,12.21-32.64A41.93,41.93,0,0,1,43.39,0a39.51,39.51,0,0,1,24.7,8.51,47.66,47.66,0,0,1,4.5,4,.51.51,0,0,0,.39.16h0a.51.51,0,0,0,.39-.16,46.6,46.6,0,0,1,4.5-4A39.51,39.51,0,0,1,102.57,0a41.9,41.9,0,0,1,31.18,13.59C141.62,22.13,146,33.72,146,46.23a48.34,48.34,0,0,1-1.73,12.93A2.61,2.61,0,0,1,140,60.44c-1.8-1.58-3.68-3.12-5.58-4.56a2.57,2.57,0,0,1-1-2.57,37.17,37.17,0,0,0,.67-7.08c0-9.52-3.22-18.26-9.06-24.6a30.19,30.19,0,0,0-22.46-9.76,27.92,27.92,0,0,0-17.44,6,37.12,37.12,0,0,0-7.34,7.68l-2.7,3.73A2.63,2.63,0,0,1,73,30.39a2.58,2.58,0,0,1-2.11-1.08l-2.7-3.73a37.12,37.12,0,0,0-7.34-7.68,27.92,27.92,0,0,0-17.44-6,30.21,30.21,0,0,0-22.46,9.76c-5.84,6.34-9.06,15.08-9.06,24.6a36.73,36.73,0,0,0,.72,7.33,2.59,2.59,0,0,1-1,2.58c-1.93,1.47-3.8,3-5.56,4.56A2.64,2.64,0,0,1,4.33,61.36ZM43.39,2.07A39.89,39.89,0,0,0,13.73,15C6.21,23.15,2.07,34.24,2.07,46.23A46.3,46.3,0,0,0,3.8,58.88a.57.57,0,0,0,.38.39.54.54,0,0,0,.52-.12c1.8-1.59,3.71-3.16,5.67-4.66a.52.52,0,0,0,.19-.53,39.19,39.19,0,0,1-.76-7.73c0-10,3.41-19.28,9.61-26a32.22,32.22,0,0,1,24-10.43A30,30,0,0,1,62.1,16.26a39.47,39.47,0,0,1,7.75,8.11l2.7,3.72a.5.5,0,0,0,.43.22.52.52,0,0,0,.44-.22l2.69-3.72a39.47,39.47,0,0,1,7.75-8.11A30,30,0,0,1,102.57,9.8a32.22,32.22,0,0,1,24,10.43c6.2,6.72,9.61,16,9.61,26a39.56,39.56,0,0,1-.71,7.47.52.52,0,0,0,.19.53c1.94,1.47,3.86,3,5.7,4.65a.53.53,0,0,0,.52.12.55.55,0,0,0,.37-.39,45.91,45.91,0,0,0,1.66-12.38c0-12-4.14-23.08-11.66-31.24A39.91,39.91,0,0,0,102.57,2.07a37.5,37.5,0,0,0-23.43,8.08,45,45,0,0,0-4.3,3.8,2.62,2.62,0,0,1-1.86.78h0A2.62,2.62,0,0,1,71.12,14a46,46,0,0,0-4.29-3.8A37.55,37.55,0,0,0,43.39,2.07Z"/><path class="cls-1" d="M99.06,101.43c.2-13.49-10.62-24-24.8-24.11-13.71-.1-24.69,10.34-24.79,23.58-.09,12,8.41,21.63,20.1,23.7v8.59H63.14a1.1,1.1,0,0,0-1.1,1.1v7.48a1.11,1.11,0,0,0,1.1,1.11h6.43v7.65a1.1,1.1,0,0,0,1.1,1.1h7.48a1.11,1.11,0,0,0,1.11-1.1v-7.65h6.63a1.11,1.11,0,0,0,1.1-1.11v-7.48a1.1,1.1,0,0,0-1.1-1.1H79.26v-8.61A23.78,23.78,0,0,0,99.06,101.43Zm-38.34-.55c.11-7.19,6.36-12.9,13.87-12.67s13.76,6.47,13.5,13.28c-.26,7-6.58,12.69-14.1,12.62S60.61,108.31,60.72,100.88Z"/><path class="cls-1" d="M78.15,152.66H70.67a2.14,2.14,0,0,1-2.14-2.13v-6.62H63.14A2.14,2.14,0,0,1,61,141.77v-7.48a2.14,2.14,0,0,1,2.13-2.14h5.39v-6.69a24.71,24.71,0,0,1-20.1-24.57c.11-13.83,11.35-24.6,25.63-24.6h.21a26.44,26.44,0,0,1,18.94,7.76,24.18,24.18,0,0,1,6.89,17.39,24.83,24.83,0,0,1-19.81,24v6.73h5.6A2.14,2.14,0,0,1,88,134.29v7.48a2.14,2.14,0,0,1-2.14,2.14h-5.6v6.62A2.14,2.14,0,0,1,78.15,152.66Zm-15-18.44a.07.07,0,0,0-.06.07v7.48a.07.07,0,0,0,.06.07H70.6v8.69a.07.07,0,0,0,.07.06h7.48a.07.07,0,0,0,.07-.06v-8.69h7.67a.07.07,0,0,0,.07-.07v-7.48a.07.07,0,0,0-.07-.07H78.22v-10.5l.85-.16a22.82,22.82,0,0,0,19-22.15h0a22.13,22.13,0,0,0-6.3-15.91,24.44,24.44,0,0,0-17.48-7.14h-.19c-13.13,0-23.46,9.87-23.55,22.55-.09,11.32,7.82,20.65,19.24,22.68l.85.15v10.48Zm11-19.07H74a14.55,14.55,0,0,1-10.39-4.3,13.81,13.81,0,0,1-3.9-10A13.5,13.5,0,0,1,64,91.22a14.68,14.68,0,0,1,10.67-4A15.48,15.48,0,0,1,85.4,92.11a13.09,13.09,0,0,1,3.73,9.41C88.84,109.07,82.13,115.15,74.13,115.15Zm0-25.91a12.58,12.58,0,0,0-8.77,3.48,11.45,11.45,0,0,0-3.62,8.18h0a11.8,11.8,0,0,0,3.31,8.51A12.55,12.55,0,0,0,74,113.08h.13c6.9,0,12.69-5.2,12.93-11.63a11.06,11.06,0,0,0-3.18-7.93,13.41,13.41,0,0,0-9.32-4.27Z"/><path class="cls-1" d="M135.57,78.4a84.72,84.72,0,0,0-62.7-29.05A84.69,84.69,0,0,0,10.17,78.4,1.15,1.15,0,0,0,10,79.65a68.3,68.3,0,0,0,4.87,7.74,1.1,1.1,0,0,0,1.74,0l1.24-1.5c15.28-16,33.35-25.27,55-25.67,21.67.4,39.74,9.65,55,25.67l1.23,1.5a1.11,1.11,0,0,0,1.75,0,68,68,0,0,0,4.86-7.74A1.15,1.15,0,0,0,135.57,78.4Z"/><path class="cls-1" d="M15.74,88.88h-.06A2.12,2.12,0,0,1,14,88a68,68,0,0,1-5-7.9,2.17,2.17,0,0,1,.33-2.38,86.28,86.28,0,0,1,63.46-29.4,86.3,86.3,0,0,1,63.5,29.4h0a2.15,2.15,0,0,1,.32,2.38,68.83,68.83,0,0,1-5,7.91,2.12,2.12,0,0,1-1.66.87,2.16,2.16,0,0,1-1.72-.79l-1.21-1.46C111.21,70,93.46,61.68,72.85,61.3,52.27,61.68,34.52,70,18.61,86.63L17.4,88.09A2.1,2.1,0,0,1,15.74,88.88ZM72.85,59.23c21,.39,39.71,9.13,55.8,26l0,.06,1.23,1.5.06,0a64.09,64.09,0,0,0,4.82-7.62s0-.07,0-.11A84.2,84.2,0,0,0,72.85,50.39,84.16,84.16,0,0,0,11,79.08a.13.13,0,0,0,0,.11,67,67,0,0,0,4.77,7.59c.09,0,.11,0,.11,0l1.29-1.56C33.18,68.36,51.94,59.62,72.85,59.23Z"/></g></g></svg>