<svg xmlns="http://www.w3.org/2000/svg" viewBox="0 0 398.21 148.09"><defs><style>.cls-1,.cls-2,.cls-3{fill:#231f20;}.cls-2{font-size:35.84px;letter-spacing:0.18em;}.cls-2,.cls-3{font-family:Arboria-Black;font-weight:800;}.cls-3{font-size:34.63px;letter-spacing:0.18em;}.cls-4{letter-spacing:0.16em;}</style></defs><title>logo-ecofff.svgRecurso 2</title><g id="Capa_2" data-name="Capa 2"><g id="Layer_1" data-name="Layer 1"><path class="cls-1" d="M10.35,45.29c0-9.34,3.17-17.93,8.92-24.17a29.8,29.8,0,0,1,22.18-9.64,27.64,27.64,0,0,1,17.26,6A36.48,36.48,0,0,1,65.92,25l2.58,3.56a1.5,1.5,0,0,0,2.43,0L73.5,25a36.74,36.74,0,0,1,7.21-7.53,27.64,27.64,0,0,1,17.26-6,29.84,29.84,0,0,1,22.19,9.64c5.75,6.24,8.92,14.83,8.92,24.17a36.31,36.31,0,0,1-.67,7,1.49,1.49,0,0,0,.56,1.48c1.83,1.39,3.63,2.86,5.38,4.4a1.52,1.52,0,0,0,2.47-.74,45.25,45.25,0,0,0,1.61-12.09c0-11.7-4-22.54-11.39-30.51A39.07,39.07,0,0,0,98,2.12,36.83,36.83,0,0,0,75,10a43,43,0,0,0-4.2,3.72,1.52,1.52,0,0,1-2.16,0,40.45,40.45,0,0,0-4.19-3.71,36.79,36.79,0,0,0-23-7.93A39.06,39.06,0,0,0,12.39,14.78C5,22.75,1,33.59,1,45.29A45.22,45.22,0,0,0,2.68,57.64a1.5,1.5,0,0,0,2.46.73q2.63-2.31,5.37-4.4a1.52,1.52,0,0,0,.55-1.49A36.45,36.45,0,0,1,10.35,45.29Z"/><path class="cls-1" d="M4.14,59.74a2.49,2.49,0,0,1-2.41-1.83A45.76,45.76,0,0,1,0,45.29c0-11.95,4.14-23,11.66-31.18a40.07,40.07,0,0,1,29.79-13A37.77,37.77,0,0,1,65,9.26a44.81,44.81,0,0,1,4.3,3.8.52.52,0,0,0,.37.16h0a.55.55,0,0,0,.38-.16,44.87,44.87,0,0,1,4.29-3.8A37.82,37.82,0,0,1,98,1.13a40.06,40.06,0,0,1,29.78,13c7.52,8.16,11.66,19.23,11.66,31.18a46.09,46.09,0,0,1-1.65,12.35,2.5,2.5,0,0,1-4.07,1.22c-1.72-1.51-3.51-3-5.33-4.35a2.5,2.5,0,0,1-.93-2.46,34.65,34.65,0,0,0,.65-6.76,34.43,34.43,0,0,0-8.66-23.5A28.86,28.86,0,0,0,98,12.47a26.69,26.69,0,0,0-16.66,5.76,35.59,35.59,0,0,0-7,7.33l-2.57,3.56a2.49,2.49,0,0,1-2,1,2.46,2.46,0,0,1-2-1l-2.57-3.56a35.55,35.55,0,0,0-7-7.33,26.71,26.71,0,0,0-16.66-5.76A28.83,28.83,0,0,0,20,21.79c-5.59,6.06-8.66,14.41-8.66,23.5a34.91,34.91,0,0,0,.69,7,2.45,2.45,0,0,1-.92,2.46c-1.84,1.41-3.63,2.88-5.31,4.36A2.48,2.48,0,0,1,4.14,59.74ZM41.45,3.11A38.07,38.07,0,0,0,13.12,15.45C5.93,23.24,2,33.84,2,45.29A44.13,44.13,0,0,0,3.63,57.37a.52.52,0,0,0,.36.37.49.49,0,0,0,.5-.11c1.72-1.52,3.54-3,5.42-4.45a.5.5,0,0,0,.18-.5,37.34,37.34,0,0,1-.73-7.39c0-9.59,3.26-18.41,9.18-24.84a30.82,30.82,0,0,1,22.91-10,28.6,28.6,0,0,1,17.87,6.18,36.94,36.94,0,0,1,7.4,7.74L69.3,28a.49.49,0,0,0,.41.22.51.51,0,0,0,.42-.22L72.7,24.4a37.74,37.74,0,0,1,7.41-7.74A28.65,28.65,0,0,1,98,10.49a30.8,30.8,0,0,1,22.9,10c5.93,6.43,9.19,15.25,9.19,24.84a37.08,37.08,0,0,1-.69,7.14.5.5,0,0,0,.19.5c1.85,1.41,3.68,2.91,5.44,4.45a.51.51,0,0,0,.5.11.53.53,0,0,0,.35-.37,43.88,43.88,0,0,0,1.58-11.83c0-11.45-3.95-22-11.13-29.84A38.09,38.09,0,0,0,98,3.11a35.77,35.77,0,0,0-22.39,7.72,43.52,43.52,0,0,0-4.1,3.62,2.51,2.51,0,0,1-1.78.75h0a2.51,2.51,0,0,1-1.78-.75,40.85,40.85,0,0,0-4.1-3.62A35.83,35.83,0,0,0,41.45,3.11Z"/><path class="cls-1" d="M94.63,98c.18-12.88-10.15-22.93-23.69-23-13.1-.1-23.59,9.88-23.69,22.52-.08,11.45,8,20.66,19.2,22.64v8.2H60.32a1.06,1.06,0,0,0-1.06,1.06v7.14a1.06,1.06,0,0,0,1.06,1.06h6.13v7.3A1.05,1.05,0,0,0,67.51,146h7.14a1.05,1.05,0,0,0,1.06-1.06v-7.3H82a1.06,1.06,0,0,0,1.06-1.06v-7.14A1.06,1.06,0,0,0,82,128.35H75.71v-8.22A22.72,22.72,0,0,0,94.63,98ZM58,97.49c.11-6.87,6.07-12.32,13.25-12.1s13.14,6.18,12.9,12.68c-.25,6.72-6.29,12.13-13.48,12.06S57.9,104.59,58,97.49Z"/><path class="cls-1" d="M74.65,147H67.51a2.05,2.05,0,0,1-2.05-2.05V138.6H60.32a2.05,2.05,0,0,1-2-2v-7.14a2.05,2.05,0,0,1,2-2h5.14V121A23.6,23.6,0,0,1,46.27,97.51C46.37,84.29,57.1,74,70.74,74h.2A25.3,25.3,0,0,1,89,81.42,23.11,23.11,0,0,1,95.62,98a23.71,23.71,0,0,1-18.92,22.9v6.43H82a2.05,2.05,0,0,1,2,2v7.14a2.05,2.05,0,0,1-2,2H76.7v6.31A2.05,2.05,0,0,1,74.65,147ZM60.32,129.34a.07.07,0,0,0-.07.07v7.14a.07.07,0,0,0,.07.07h7.12v8.29a.07.07,0,0,0,.07.07h7.14a.07.07,0,0,0,.07-.07v-8.29H82a.07.07,0,0,0,.07-.07v-7.14a.07.07,0,0,0-.07-.07H74.72v-10l.81-.16A21.78,21.78,0,0,0,93.64,98h0a21.15,21.15,0,0,0-6-15.2A23.31,23.31,0,0,0,70.93,76h-.19c-12.54,0-22.4,9.43-22.5,21.54-.08,10.82,7.48,19.72,18.38,21.66l.82.15v10Zm10.49-18.22h-.14a13.9,13.9,0,0,1-9.93-4.1A13.27,13.27,0,0,1,57,97.48a13,13,0,0,1,4.07-9.22,14.09,14.09,0,0,1,10.2-3.86,14.85,14.85,0,0,1,10.3,4.71,12.56,12.56,0,0,1,3.56,9C84.87,105.31,78.45,111.12,70.81,111.12Zm0-24.75a12,12,0,0,0-8.38,3.32A11,11,0,0,0,59,97.51h0a11.31,11.31,0,0,0,3.17,8.13,11.9,11.9,0,0,0,8.52,3.5h.13c6.59,0,12.12-5,12.35-11.11a10.55,10.55,0,0,0-3-7.57,12.85,12.85,0,0,0-8.91-4.08Z"/><path class="cls-1" d="M129.5,76A81,81,0,0,0,69.6,48.27,80.92,80.92,0,0,0,9.71,76a1.09,1.09,0,0,0-.17,1.19,66.23,66.23,0,0,0,4.65,7.4,1.06,1.06,0,0,0,1.67,0L17,83.22C31.64,67.92,48.9,59.08,69.6,58.7c20.71.38,38,9.22,52.57,24.52l1.18,1.43a1.06,1.06,0,0,0,1.67,0,64.47,64.47,0,0,0,4.64-7.4A1.08,1.08,0,0,0,129.5,76Z"/><path class="cls-1" d="M15,86H15a2,2,0,0,1-1.59-.84,65.07,65.07,0,0,1-4.73-7.54A2.06,2.06,0,0,1,9,75.37,82.4,82.4,0,0,1,69.59,47.28a82.41,82.41,0,0,1,60.65,28.09h0a2.06,2.06,0,0,1,.31,2.28,65.07,65.07,0,0,1-4.73,7.54,2,2,0,0,1-1.59.84,2.09,2.09,0,0,1-1.65-.75l-1.15-1.4C106.23,68,89.28,60.05,69.59,59.69,49.93,60.05,33,68,17.78,83.88l-1.16,1.4A2,2,0,0,1,15,86ZM69.59,57.71c20,.37,37.93,8.72,53.3,24.83l0,0L124.11,84l.06,0a61.72,61.72,0,0,0,4.61-7.28.11.11,0,0,0,0-.1A80.44,80.44,0,0,0,69.59,49.26,80.43,80.43,0,0,0,10.46,76.67a.11.11,0,0,0,0,.1A64.63,64.63,0,0,0,15,84c.08,0,.1,0,.11,0l1.22-1.48C31.69,66.43,49.61,58.08,69.59,57.71Z"/><path class="cls-1" d="M178.64,39.4a28.46,28.46,0,0,0,3,12.19,21.84,21.84,0,0,0,8.13,8.63A21.62,21.62,0,0,0,201,63.29q12.53,0,19.74-11.62c.94-1.54,1.9-2.32,2.9-2.32a8.33,8.33,0,0,1,2.82,1.24L229,52q3,1.65,3,3.15a4.78,4.78,0,0,1-1,2.4Q220,74.24,200.62,74.23q-16.92,0-26.87-12.27-7.89-9.78-7.88-24.64,0-17.16,10-27.53Q185.37,0,200,0q14.85,0,24.22,10.12t9.37,26.21a2.78,2.78,0,0,1-.91,2.45,7,7,0,0,1-3.57.62Zm42.22-10.2a24.71,24.71,0,0,0-4.06-9.87A19.64,19.64,0,0,0,200.21,11a19.87,19.87,0,0,0-13.56,5.14,22,22,0,0,0-7.26,13.11Z"/><path class="cls-1" d="M307.12,10v4.73q0,4.16-2.74,4.15a3.64,3.64,0,0,1-2-1,38.34,38.34,0,0,0-8.83-5.39,24.84,24.84,0,0,0-27.08,6.89A26.32,26.32,0,0,0,260,37.16a26.45,26.45,0,0,0,7,18.5,23.18,23.18,0,0,0,17.83,7.54,23.8,23.8,0,0,0,8.88-1.53,38.91,38.91,0,0,0,9.2-5.85,3.44,3.44,0,0,1,1.91-.91c1.82,0,2.74,1.33,2.74,4v4.73c0,2-.34,3.34-1,3.9a31.79,31.79,0,0,1-9.87,4.85,38.68,38.68,0,0,1-11.53,1.86q-18.08,0-28.95-13.18a36.28,36.28,0,0,1-8.54-23.73A36.7,36.7,0,0,1,259,10.2Q269.3,0,285.22,0A41.5,41.5,0,0,1,297,1.78a25.48,25.48,0,0,1,9.21,4.44C306.82,6.72,307.12,8,307.12,10Z"/><path class="cls-1" d="M358.88,0a35.9,35.9,0,0,1,27.7,12.11,35.76,35.76,0,0,1,9.54,25q0,16.93-12.36,27.87a38.09,38.09,0,0,1-44,4.15A36,36,0,0,1,326,54.58a37.93,37.93,0,0,1-4.31-18.08q0-15.43,11.61-26.46A36,36,0,0,1,358.88,0Zm-.33,11a22.91,22.91,0,0,0-19,9.12q-5.55,7-5.55,17.59,0,11.28,7.38,18.66a23.65,23.65,0,0,0,17.42,7q12.18,0,19.49-9,5.47-6.87,5.47-17.08,0-11.94-7.46-19.24Q369.25,10.94,358.55,11Z"/><text class="cls-2" transform="translate(167.54 139.67)">resonante</text><text class="cls-3" transform="translate(166.77 110.3)">Psi<tspan class="cls-4" x="67.87" y="0">c</tspan><tspan x="90.94" y="0">ología</tspan></text></g></g></svg>