<svg xmlns="http://www.w3.org/2000/svg" xmlns:xlink="http://www.w3.org/1999/xlink" viewBox="0 0 503.23 195.83"><defs><style>.cls-1{fill:none;}.cls-2{fill:#fff;}.cls-3{clip-path:url(#clip-path);}.cls-4{fill:#fd6b6b;}.cls-5{fill:#e6a7e5;}.cls-6{fill:#007b7e;}.cls-7{fill:#e4a06b;}</style><clipPath id="clip-path" transform="translate(75.54 17.3)"><rect class="cls-1" width="162.94" height="162.94" rx="81.47"/></clipPath></defs><title>logo-ecofff.svgRecurso 3</title><g id="Capa_2" data-name="Capa 2"><g id="Layer_1" data-name="Layer 1"><path class="cls-2" d="M195.16,49.79a30.49,30.49,0,0,0,3.18,13A23.31,23.31,0,0,0,207,72a23,23,0,0,0,12,3.27q13.32,0,21-12.37c1-1.64,2-2.47,3.09-2.47a8.67,8.67,0,0,1,3,1.32l2.65,1.51c2.12,1.18,3.18,2.29,3.18,3.35a5.07,5.07,0,0,1-1.06,2.56q-11.65,17.75-32.32,17.75-18,0-28.61-13.07-8.38-10.41-8.38-26.22,0-18.29,10.68-29.32Q202.32,7.86,218,7.85q15.8,0,25.78,10.77t10,27.91a3,3,0,0,1-1,2.6,7.46,7.46,0,0,1-3.8.66Zm45-10.86a26.07,26.07,0,0,0-4.33-10.5,20.89,20.89,0,0,0-17.66-8.92A21.18,21.18,0,0,0,203.69,25a23.46,23.46,0,0,0-7.73,14Z" transform="translate(75.54 17.3)"/><path class="cls-2" d="M331.94,18.45v5c0,2.94-1,4.42-2.91,4.42a3.93,3.93,0,0,1-2.12-1.06,40.91,40.91,0,0,0-9.4-5.74,24.44,24.44,0,0,0-9.05-1.59q-12.19,0-19.78,8.92a28,28,0,0,0-6.89,19,28.13,28.13,0,0,0,7.42,19.69q7.41,8,19,8a25.2,25.2,0,0,0,9.45-1.64,41.74,41.74,0,0,0,9.8-6.22,3.63,3.63,0,0,1,2-1c1.94,0,2.92,1.41,2.92,4.24v5c0,2.18-.36,3.56-1.06,4.15a33.58,33.58,0,0,1-10.51,5.16,40.93,40.93,0,0,1-12.28,2q-19.25,0-30.81-14a38.55,38.55,0,0,1-9.1-25.25,39,39,0,0,1,12.1-28.88q10.95-10.86,27.9-10.86a44.16,44.16,0,0,1,12.54,1.9,27.27,27.27,0,0,1,9.8,4.72C331.62,15,331.94,16.33,331.94,18.45Z" transform="translate(75.54 17.3)"/><path class="cls-2" d="M387,7.85q17.76,0,29.5,12.89a38.12,38.12,0,0,1,10.15,26.58q0,18-13.16,29.67-11.11,9.9-26.75,9.89a39.17,39.17,0,0,1-20.13-5.47A38.15,38.15,0,0,1,352,66,40.39,40.39,0,0,1,347.4,46.7q0-16.41,12.36-28.16A38.25,38.25,0,0,1,387,7.85Zm-.35,11.66q-12.63,0-20.22,9.71-5.93,7.5-5.92,18.72,0,12,7.86,19.87A25.19,25.19,0,0,0,387,75.23q13,0,20.76-9.63,5.82-7.32,5.82-18.19,0-12.72-7.94-20.48Q398.08,19.51,386.69,19.51Z" transform="translate(75.54 17.3)"/><path class="cls-2" d="M181.15,134.33h7V138a4.79,4.79,0,0,1,1.85-2.57,7.15,7.15,0,0,1,4.8-1.45v7.88q-3.73,0-5.1,1.46a6.54,6.54,0,0,0-1.35,4.56v6.85h-7.25Z" transform="translate(75.54 17.3)"/><path class="cls-2" d="M215.46,155.09a12,12,0,0,1-8.13-2.85,9.67,9.67,0,0,1-3.31-7.71,10.43,10.43,0,0,1,10.6-10.59,9.61,9.61,0,0,1,7.25,3.08,10.46,10.46,0,0,1,2.95,7.51l-.16,2.35H211.15c.56,1.76,2,2.63,4.35,2.63a9.68,9.68,0,0,0,4.82-1.23l2.43,4.9A13.66,13.66,0,0,1,215.46,155.09Zm-3.19-14.58a4.23,4.23,0,0,0-1.32,2.27h7.25a3.34,3.34,0,0,0-1.17-2.27,3.55,3.55,0,0,0-2.41-.88A3.42,3.42,0,0,0,212.27,140.51Z" transform="translate(75.54 17.3)"/><path class="cls-2" d="M236.14,147.56a10.65,10.65,0,0,0,2.65,1.3,12.51,12.51,0,0,0,3.53.41,4.33,4.33,0,0,0,.55-.06,3.75,3.75,0,0,0,.92-.28c.34-.14.52-.34.52-.57a.42.42,0,0,0-.12-.32,1.26,1.26,0,0,0-.4-.24l-.48-.18-.69-.16-.7-.14a14.81,14.81,0,0,1-5.68-2.43,5,5,0,0,1-2-4.18,5.82,5.82,0,0,1,2.45-5,9.69,9.69,0,0,1,5.91-1.79,17.2,17.2,0,0,1,8.25,1.91l-2.15,4.86a16.11,16.11,0,0,0-5.86-1.2c-.85,0-1.27.21-1.27.64s.34.6,1,.84,1.53.49,2.51.75a24.85,24.85,0,0,1,3,1,5.94,5.94,0,0,1,2.53,2,5.39,5.39,0,0,1,1,3.33,6,6,0,0,1-1,3.36,6.35,6.35,0,0,1-2.47,2.22,13.19,13.19,0,0,1-3,1.09,12.91,12.91,0,0,1-2.92.34c-3.78,0-6.59-.81-8.45-2.43Z" transform="translate(75.54 17.3)"/><path class="cls-2" d="M263.93,137a11.55,11.55,0,0,1,15.66,0,10.48,10.48,0,0,1,0,15,11.52,11.52,0,0,1-15.66,0,10.5,10.5,0,0,1,0-15Zm5.18,10.54a3.59,3.59,0,0,0,5.3,0,4.41,4.41,0,0,0,1-3,4.48,4.48,0,0,0-1-3,3.5,3.5,0,0,0-5.26,0,5,5,0,0,0,0,6Z" transform="translate(75.54 17.3)"/><path class="cls-2" d="M292.73,134.33h6.85v2.24a7.66,7.66,0,0,1,6.13-2.63,7.92,7.92,0,0,1,3.25.61,5.69,5.69,0,0,1,2.11,1.5,6.35,6.35,0,0,1,1.16,2.23,12.3,12.3,0,0,1,.52,2.47c.06.74.09,1.6.09,2.59v11.35h-7.25V144.25c0-2.36-.75-3.54-2.27-3.54a2.89,2.89,0,0,0-2.45,1.21,5.27,5.27,0,0,0-.89,3.17v9.6h-7.25Z" transform="translate(75.54 17.3)"/><path class="cls-2" d="M336.88,134.33h6.85v20.36h-6.85v-2.27a4,4,0,0,1-2.27,2.05,8.77,8.77,0,0,1-3.15.62,7.83,7.83,0,0,1-6.5-3,13.43,13.43,0,0,1,0-15.18,7.82,7.82,0,0,1,6.5-3,8.76,8.76,0,0,1,3.15.61,4,4,0,0,1,2.27,2Zm-6,13.21a2.95,2.95,0,0,0,4.7,0,4.74,4.74,0,0,0,.92-3,4.86,4.86,0,0,0-.92-3,2.92,2.92,0,0,0-4.7,0,4.86,4.86,0,0,0-.92,3A4.74,4.74,0,0,0,330.9,147.54Z" transform="translate(75.54 17.3)"/><path class="cls-2" d="M354.1,134.33H361v2.24a7.66,7.66,0,0,1,6.13-2.63,7.92,7.92,0,0,1,3.25.61,5.77,5.77,0,0,1,2.11,1.5,6.35,6.35,0,0,1,1.16,2.23,12.22,12.22,0,0,1,.51,2.47c.07.74.1,1.6.1,2.59v11.35H367V144.25c0-2.36-.75-3.54-2.27-3.54a2.89,2.89,0,0,0-2.45,1.21,5.2,5.2,0,0,0-.89,3.17v9.6H354.1Z" transform="translate(75.54 17.3)"/><path class="cls-2" d="M386.05,140.07h-3v-5.74h3v-3.66l7.25-1.79v5.45h4.5v5.74h-4.5v7.49c0,.85.38,1.27,1.12,1.27a3.21,3.21,0,0,0,1.83-.63l1.95,5.3a9.67,9.67,0,0,1-5.69,1.59,6.17,6.17,0,0,1-4.72-1.83,7.19,7.19,0,0,1-1.74-5.14Z" transform="translate(75.54 17.3)"/><path class="cls-2" d="M418.33,155.09a12,12,0,0,1-8.13-2.85,9.66,9.66,0,0,1-3.3-7.71,10.42,10.42,0,0,1,10.59-10.59,9.61,9.61,0,0,1,7.25,3.08,10.46,10.46,0,0,1,2.95,7.51l-.16,2.35H414c.55,1.76,2,2.63,4.34,2.63a9.68,9.68,0,0,0,4.82-1.23l2.43,4.9A13.66,13.66,0,0,1,418.33,155.09Zm-3.19-14.58a4.16,4.16,0,0,0-1.31,2.27h7.25a3.39,3.39,0,0,0-1.18-2.27,3.55,3.55,0,0,0-2.41-.88A3.43,3.43,0,0,0,415.14,140.51Z" transform="translate(75.54 17.3)"/><path class="cls-2" d="M183.26,97.76h11c3.68,0,6.52.92,8.53,2.78a9.7,9.7,0,0,1,0,14.07q-3,2.77-8.55,2.78h-3.65v5.21h-7.28Zm11.12,13.45A3.67,3.67,0,0,0,197,105a3.5,3.5,0,0,0-2.6-1h-3.88v7.28Z" transform="translate(75.54 17.3)"/><path class="cls-2" d="M216.81,115.74a10.36,10.36,0,0,0,2.55,1.25,12,12,0,0,0,3.4.4,4,4,0,0,0,1.42-.33c.33-.14.49-.32.49-.55a.41.41,0,0,0-.11-.31,1.4,1.4,0,0,0-.38-.23,4.74,4.74,0,0,0-.46-.17l-.68-.16-.67-.13a14.32,14.32,0,0,1-5.46-2.34,4.84,4.84,0,0,1-1.94-4,5.61,5.61,0,0,1,2.36-4.79,9.38,9.38,0,0,1,5.7-1.72,16.55,16.55,0,0,1,7.93,1.84l-2.07,4.67a15.68,15.68,0,0,0-5.63-1.15c-.82,0-1.23.21-1.23.62s.33.57,1,.8,1.47.48,2.41.73a23.6,23.6,0,0,1,2.86,1,5.71,5.71,0,0,1,2.43,1.92,5.13,5.13,0,0,1,1,3.2,5.82,5.82,0,0,1-.92,3.24,6.09,6.09,0,0,1-2.38,2.13,13.12,13.12,0,0,1-2.89,1,12.6,12.6,0,0,1-2.82.33q-5.44,0-8.13-2.34Z" transform="translate(75.54 17.3)"/><path class="cls-2" d="M241.57,94.75a3.79,3.79,0,0,1,2.78-1.17,3.88,3.88,0,0,1,2.83,1.17,3.88,3.88,0,0,1,0,5.59,3.88,3.88,0,0,1-2.83,1.17,4,4,0,0,1-2.78-6.76ZM240.9,103h7V122.6h-7Z" transform="translate(75.54 17.3)"/><path class="cls-2" d="M275.18,120.57a10.73,10.73,0,0,1-7.13,2.42,10.42,10.42,0,0,1-7.54-3,10.08,10.08,0,0,1,0-14.45,10.41,10.41,0,0,1,7.54-3,10.8,10.8,0,0,1,6.94,2.45l-4,4.83a3.89,3.89,0,0,0-2.72-1.15,3.43,3.43,0,0,0-2.71,1.15,4.29,4.29,0,0,0-1,2.92,4.09,4.09,0,0,0,1,2.91,3.7,3.7,0,0,0,2.84,1.11,4.52,4.52,0,0,0,3.3-1.42Z" transform="translate(75.54 17.3)"/><path class="cls-2" d="M286.05,105.58a11.1,11.1,0,0,1,15.07,0,10.08,10.08,0,0,1,0,14.45,11.07,11.07,0,0,1-15.07,0,10.08,10.08,0,0,1,0-14.45Zm5,10.14a3.44,3.44,0,0,0,5.1,0,4.26,4.26,0,0,0,1-2.89,4.32,4.32,0,0,0-1-2.92,3.36,3.36,0,0,0-5.06,0,4.28,4.28,0,0,0-1,2.92A4.22,4.22,0,0,0,291,115.72Z" transform="translate(75.54 17.3)"/><path class="cls-2" d="M313.76,97.37h7V122.6h-7Z" transform="translate(75.54 17.3)"/><path class="cls-2" d="M333.37,105.58a11.1,11.1,0,0,1,15.07,0,10.08,10.08,0,0,1,0,14.45,11.07,11.07,0,0,1-15.07,0,10.11,10.11,0,0,1,0-14.45Zm5,10.14a3.44,3.44,0,0,0,5.1,0,4.27,4.27,0,0,0,1-2.89,4.33,4.33,0,0,0-1-2.92,3.36,3.36,0,0,0-5.06,0,4.76,4.76,0,0,0,0,5.81Z" transform="translate(75.54 17.3)"/><path class="cls-2" d="M381,117.27a14.86,14.86,0,0,1-.54,4.11,10.54,10.54,0,0,1-1.72,3.47,7.77,7.77,0,0,1-3.36,2.49,13.28,13.28,0,0,1-5.12.9q-5.52,0-8.59-2.07l2.5-4.37a9.75,9.75,0,0,0,5.33,1.26,4.72,4.72,0,0,0,3.39-1.07A3.36,3.36,0,0,0,374,119.5a4.28,4.28,0,0,1-2,1.47,7.37,7.37,0,0,1-2.59.48,8.05,8.05,0,0,1-6.38-2.68,10.78,10.78,0,0,1,0-13.46,8.05,8.05,0,0,1,6.38-2.68,7.22,7.22,0,0,1,2.86.61,4.15,4.15,0,0,1,2.13,2V103H381Zm-7.82-7.67a3.18,3.18,0,0,0-4.53,0,3.53,3.53,0,0,0-.88,2.46,3.42,3.42,0,0,0,.88,2.43,3.2,3.2,0,0,0,4.53,0,3.38,3.38,0,0,0,.88-2.43A3.48,3.48,0,0,0,373.2,109.6Z" transform="translate(75.54 17.3)"/><path class="cls-2" d="M394.64,93.88h6.71l-5.56,6.87h-5.18ZM390.8,103h7V122.6h-7Z" transform="translate(75.54 17.3)"/><path class="cls-2" d="M421.1,103h6.59V122.6H421.1v-2.18a3.84,3.84,0,0,1-2.19,2,8.25,8.25,0,0,1-3,.6,7.51,7.51,0,0,1-6.25-2.88,12.94,12.94,0,0,1,0-14.61,7.5,7.5,0,0,1,6.25-2.87,8.24,8.24,0,0,1,3,.59,3.88,3.88,0,0,1,2.19,2Zm-5.76,12.71a2.84,2.84,0,0,0,4.53,0,4.54,4.54,0,0,0,.88-2.89,4.65,4.65,0,0,0-.88-2.92,2.81,2.81,0,0,0-4.53,0,4.72,4.72,0,0,0-.88,2.92A4.61,4.61,0,0,0,415.34,115.72Z" transform="translate(75.54 17.3)"/><g class="cls-3"><path class="cls-4" d="M-26.14,120q86.61-7,173.57-6.88,24.52,0,49.06.63c8.14.2,17.09-3.73,22.8-9.44s9.81-14.77,9.45-22.81c-.38-8.34-3.12-17-9.45-22.8a34.13,34.13,0,0,0-22.8-9.45q-86.9-2.1-173.75,2.87-24.45,1.41-48.88,3.38a24.23,24.23,0,0,0-12.42,2.78,24.11,24.11,0,0,0-10.38,6.67c-5.59,5.59-9.81,14.77-9.45,22.8.38,8.34,3.12,17,9.45,22.81,6,5.52,14.35,10.12,22.8,9.44Z" transform="translate(75.54 17.3)"/><path class="cls-5" d="M-39.8,84.53Q9.58,74.33,59.59,67.61l-7.5,1Q108,61.13,164.48,58q16-.87,32-1.39a29.49,29.49,0,0,0,19.95-8.26c4.89-4.9,8.58-12.93,8.27-20-.33-7.3-2.73-14.86-8.27-19.95S204,0,196.49.19A1491.72,1491.72,0,0,0-1.12,20.07q-26.92,4.5-53.68,10c-6.68,1.37-13.52,7.23-16.87,13-3.54,6-5,15-2.84,21.74s6.44,13.42,13,16.87A31.11,31.11,0,0,0-39.8,84.53Z" transform="translate(75.54 17.3)"/><path class="cls-6" d="M-43,43.29q49.4-10.2,99.39-16.93l-4.28.58Q108,19.45,164.48,16.35q16-.89,32-1.39c8.42-.27,16.52-7.22,16.12-16.13-.38-8.5-7.09-16.42-16.12-16.12A1466.65,1466.65,0,0,0,2.1,2.15q-26.94,4.5-53.69,10C-59.86,13.9-65.41,24.11-62.85,32-60,40.78-51.88,45.12-43,43.29Z" transform="translate(75.54 17.3)"/><path class="cls-7" d="M-21.46,176.91l6.25-.87-8.57,1.15A807.18,807.18,0,0,1,144,172.25q23.58,1.77,47,4.93L182.44,176c3.12.42,6.25.86,9.37,1.32a24.47,24.47,0,0,0,12.86.58,24,24,0,0,0,12-3.83c6.69-3.92,13.07-11.59,14.82-19.28,1.88-8.25,1.47-17.52-3.25-24.85l-5-6.52a32.12,32.12,0,0,0-14.23-8.3C146.35,106,83.22,103,20.1,108c-19.64,1.55-39.2,3.93-58.7,6.71a24.28,24.28,0,0,0-11,5.77,24.45,24.45,0,0,0-8.31,9c-4,6.91-5.76,17.1-3.25,24.85s7.36,15.33,14.82,19.28l7.71,3.25a32.58,32.58,0,0,0,17.14,0Z" transform="translate(75.54 17.3)"/></g><path class="cls-2" d="M38.36,66.07a25.67,25.67,0,0,1,6.48-17.55,21.65,21.65,0,0,1,16.11-7,20,20,0,0,1,12.53,4.34,26.81,26.81,0,0,1,5.24,5.47l1.87,2.59a1.09,1.09,0,0,0,1.76,0l1.87-2.59a26.81,26.81,0,0,1,5.24-5.47A20.06,20.06,0,0,1,102,41.51a21.65,21.65,0,0,1,16.11,7,25.67,25.67,0,0,1,6.48,17.55,26.44,26.44,0,0,1-.48,5.05,1.08,1.08,0,0,0,.4,1.07c1.33,1,2.64,2.08,3.91,3.19a1.1,1.1,0,0,0,1.79-.53,33.07,33.07,0,0,0,1.17-8.78,32.49,32.49,0,0,0-8.27-22.16A28.39,28.39,0,0,0,102,34.72,26.76,26.76,0,0,0,85.3,40.47a30.85,30.85,0,0,0-3,2.7,1.09,1.09,0,0,1-1.56,0,30.85,30.85,0,0,0-3-2.7A26.76,26.76,0,0,0,61,34.72a28.39,28.39,0,0,0-21.11,9.19,32.49,32.49,0,0,0-8.27,22.16,32.85,32.85,0,0,0,1.22,9,1.1,1.1,0,0,0,1.79.53q1.91-1.68,3.9-3.2a1.09,1.09,0,0,0,.4-1.08A26.63,26.63,0,0,1,38.36,66.07Z" transform="translate(75.54 17.3)"/><path class="cls-2" d="M33.86,76.56a1.8,1.8,0,0,1-1.76-1.33,33.52,33.52,0,0,1-1.25-9.16,33.16,33.16,0,0,1,8.47-22.64A29.07,29.07,0,0,1,61,34a27.42,27.42,0,0,1,17.13,5.91,33.2,33.2,0,0,1,3.12,2.75.36.36,0,0,0,.27.12h0a.36.36,0,0,0,.27-.12,32.15,32.15,0,0,1,3.12-2.75A27.42,27.42,0,0,1,102,34a29.09,29.09,0,0,1,21.63,9.42A34.42,34.42,0,0,1,130.89,75a1.81,1.81,0,0,1-2.95.88c-1.25-1.09-2.55-2.16-3.87-3.16a1.8,1.8,0,0,1-.68-1.78,25.22,25.22,0,0,0,.47-4.91A25,25,0,0,0,117.57,49,21,21,0,0,0,102,42.23,19.35,19.35,0,0,0,89.9,46.42a25.59,25.59,0,0,0-5.09,5.32l-1.87,2.59a1.82,1.82,0,0,1-2.94,0l-1.86-2.59A25.89,25.89,0,0,0,73,46.42,19.35,19.35,0,0,0,61,42.23,20.94,20.94,0,0,0,45.37,49a24.92,24.92,0,0,0-6.29,17.06,25.44,25.44,0,0,0,.5,5.08,1.8,1.8,0,0,1-.66,1.79c-1.34,1-2.64,2.09-3.86,3.17A1.81,1.81,0,0,1,33.86,76.56ZM61,35.44a27.67,27.67,0,0,0-20.58,9,33,33,0,0,0-6.88,30.44.38.38,0,0,0,.62.19c1.25-1.1,2.57-2.19,3.93-3.23a.37.37,0,0,0,.13-.37,27.44,27.44,0,0,1-.53-5.36,26.42,26.42,0,0,1,6.67-18A22.38,22.38,0,0,1,61,40.8a20.74,20.74,0,0,1,13,4.48A27.47,27.47,0,0,1,79.3,50.9l1.87,2.59a.37.37,0,0,0,.3.15.36.36,0,0,0,.3-.15l1.87-2.59A27.47,27.47,0,0,1,89,45.28a20.74,20.74,0,0,1,13-4.48A22.34,22.34,0,0,1,118.63,48a26.42,26.42,0,0,1,6.67,18,27.15,27.15,0,0,1-.5,5.18.37.37,0,0,0,.13.37c1.35,1,2.68,2.11,4,3.23a.38.38,0,0,0,.62-.19,32.17,32.17,0,0,0,1.15-8.59,31.77,31.77,0,0,0-8.09-21.67,27.67,27.67,0,0,0-20.58-9A26,26,0,0,0,85.74,41a32,32,0,0,0-3,2.64,1.82,1.82,0,0,1-1.29.54h0a1.82,1.82,0,0,1-1.29-.54,30.6,30.6,0,0,0-3-2.64A26,26,0,0,0,61,35.44Z" transform="translate(75.54 17.3)"/><path class="cls-2" d="M99.56,104.36c.14-9.36-7.37-16.65-17.2-16.72-9.51-.07-17.13,7.17-17.2,16.35A16.52,16.52,0,0,0,79.1,120.43v5.95H74.65a.78.78,0,0,0-.77.77v5.19a.78.78,0,0,0,.77.77H79.1v5.3a.78.78,0,0,0,.77.77h5.19a.77.77,0,0,0,.76-.77v-5.3h4.6a.77.77,0,0,0,.77-.77v-5.19a.77.77,0,0,0-.77-.77h-4.6v-6A16.47,16.47,0,0,0,99.56,104.36ZM73,104a9.14,9.14,0,0,1,9.62-8.79c5.14.15,9.54,4.48,9.36,9.21s-4.57,8.8-9.78,8.75A9,9,0,0,1,73,104Z" transform="translate(75.54 17.3)"/><path class="cls-2" d="M85.06,139.9H79.87a1.49,1.49,0,0,1-1.49-1.49v-4.59H74.65a1.49,1.49,0,0,1-1.49-1.48v-5.19a1.49,1.49,0,0,1,1.49-1.48h3.73V121a17.13,17.13,0,0,1-13.94-17c.08-9.6,7.87-17.07,17.78-17.07h.14A18.37,18.37,0,0,1,95.5,92.3a16.75,16.75,0,0,1,4.78,12.07A17.21,17.21,0,0,1,86.54,121v4.67h3.88a1.49,1.49,0,0,1,1.49,1.48v5.19a1.49,1.49,0,0,1-1.49,1.48H86.54v4.59A1.49,1.49,0,0,1,85.06,139.9ZM74.65,127.1a0,0,0,0,0-.05.05v5.19a0,0,0,0,0,.05,0h5.17v6a0,0,0,0,0,.05.05h5.19a.05.05,0,0,0,0-.05v-6h5.31a0,0,0,0,0,0,0v-5.19a0,0,0,0,0,0-.05H85.11v-7.29l.58-.11a15.79,15.79,0,0,0,13.15-15.35h0a15.36,15.36,0,0,0-4.36-11,17,17,0,0,0-12.13-5h-.13C73.11,88.35,66,95.2,65.88,104a15.74,15.74,0,0,0,13.35,15.72l.59.11v7.27Zm7.62-13.23h-.11a10,10,0,0,1-7.2-3A9.61,9.61,0,0,1,72.25,104a9.44,9.44,0,0,1,3-6.69,10.22,10.22,0,0,1,7.41-2.8,10.72,10.72,0,0,1,7.47,3.42,9.07,9.07,0,0,1,2.59,6.53C92.47,109.65,87.82,113.87,82.27,113.87Zm0-18a8.72,8.72,0,0,0-6.08,2.41A8,8,0,0,0,73.69,104h0a8.18,8.18,0,0,0,2.29,5.9,8.65,8.65,0,0,0,6.2,2.54h.09c4.78,0,8.8-3.61,9-8.07A7.67,7.67,0,0,0,89,98.87a9.3,9.3,0,0,0-6.46-3Z" transform="translate(75.54 17.3)"/><path class="cls-2" d="M124.88,88.38A58.77,58.77,0,0,0,81.39,68.23,58.77,58.77,0,0,0,37.9,88.38a.79.79,0,0,0-.12.87,47.55,47.55,0,0,0,3.37,5.37.77.77,0,0,0,1.22,0l.85-1C53.82,82.5,66.36,76.08,81.39,75.8c15,.28,27.57,6.7,38.17,17.81l.86,1a.76.76,0,0,0,1.21,0A47.86,47.86,0,0,0,125,89.25.8.8,0,0,0,124.88,88.38Z" transform="translate(75.54 17.3)"/><path class="cls-2" d="M41.77,95.65h0A1.47,1.47,0,0,1,40.57,95a47.24,47.24,0,0,1-3.44-5.48,1.52,1.52,0,0,1,.23-1.65,59.86,59.86,0,0,1,44-20.4,59.85,59.85,0,0,1,44,20.4h0a1.48,1.48,0,0,1,.23,1.65A48.1,48.1,0,0,1,122.21,95a1.44,1.44,0,0,1-1.15.61,1.49,1.49,0,0,1-1.2-.54l-.83-1c-11-11.56-23.35-17.3-37.65-17.57-14.27.27-26.59,6-37.62,17.57l-.84,1A1.5,1.5,0,0,1,41.77,95.65ZM81.38,75.08c14.53.27,27.54,6.34,38.7,18l0,0,.85,1,0,0a44.72,44.72,0,0,0,3.34-5.28.09.09,0,0,0,0-.08,58.43,58.43,0,0,0-43-19.9A58.4,58.4,0,0,0,38.44,88.86a.07.07,0,0,0,0,.07,48.7,48.7,0,0,0,3.31,5.27c.06,0,.08,0,.08,0l.89-1.07C53.86,81.42,66.87,75.35,81.38,75.08Z" transform="translate(75.54 17.3)"/></g></g></svg>