<svg xmlns="http://www.w3.org/2000/svg" viewBox="0 0 149.27 345.08"><defs><style>.cls-1{fill:#e4a06b;}</style></defs><title>logo-ecofff.svgRecurso 6</title><g id="Capa_2" data-name="Capa 2"><g id="Layer_1" data-name="Layer 1"><path class="cls-1" d="M117.61,326.13l.08.18C118,326.93,118.64,328.46,117.61,326.13Z"/><path class="cls-1" d="M115.56,138.32a67.05,67.05,0,0,0-37-4.49,1.78,1.78,0,0,0-1.48,1.8c.13,3.9.28,7.8.52,11.7A1.77,1.77,0,0,0,79.65,149c.69-.14,1.38-.26,2.07-.37-.17,0,1.63-.21,1.92-.24.91-.08,1.82-.15,2.74-.21a61,61,0,0,1,6.34,0c1.08.05,2.15.14,3.21.25-.22,0,2,.3,2.16.34a57.66,57.66,0,0,1,6.85,1.72c1.12.36,2.22.77,3.32,1.19l.27.1.08,0c.6.26,1.19.53,1.78.82a55.75,55.75,0,0,1,6.1,3.48,40.76,40.76,0,0,1,9.23,8.55c-.12-.13,1.18,1.65,1.29,1.82.6.89,1.16,1.8,1.7,2.74s1.15,2.12,1.66,3.21c.08.16.44,1,.49,1.09.17.44.34.89.5,1.34a53,53,0,0,1,2,7.13,26.46,26.46,0,0,1,.67,5.34,56.49,56.49,0,0,1-.15,8c0,.4-.08.8-.13,1.19q0,.17-.06.39c-.23,1.33-.49,2.66-.81,4a53.28,53.28,0,0,1-2,6.4l-.41,1c-.17.37-.33.73-.5,1.09-.55,1.17-1.14,2.33-1.77,3.46a48.46,48.46,0,0,1-7.25,10.12,59.17,59.17,0,0,1-9.34,8.31,60.81,60.81,0,0,1-15.94,8,1,1,0,0,0-.69,1.17c.86,4.24,1.89,8.48,2.93,12.72a1,1,0,0,0,1.29.74,77,77,0,0,0,25.36-13.56c15.74-12.71,25.82-32.75,24.64-53.17C147.94,165.78,135.37,146.88,115.56,138.32Zm18.17,58.15c0-.32.17-1,0,0Z"/><path class="cls-1" d="M67.76,241.93h0a65.13,65.13,0,0,1-9.1-1.92c-1.84-.52-3.67-1.12-5.47-1.78-.67-.26-1.34-.52-2-.8l-.21-.09c-.55-.26-1.11-.5-1.67-.77A64.26,64.26,0,0,1,40,231.13l-1.34-1s-1-.8-1.28-1c-1.39-1.17-2.74-2.4-4-3.68s-2.25-2.33-3.31-3.55c-.5-.58-1-1.17-1.46-1.75l-.08-.1c-.26-.36-.53-.71-.79-1.08a67.31,67.31,0,0,1-5.33-8.7c-.35-.67-.68-1.35-1-2l-.73-1.61-.74-1.82c-.34-.89-.66-1.78-1-2.69a77.73,77.73,0,0,1-2.58-9.72c-.17-.85-.33-1.71-.47-2.56-.06-.42-.26-2-.22-1.57-.16-1.5-.32-3-.42-4.52a85,85,0,0,1,0-10.59c.11-1.68.32-3.34.47-5h0v0c.06-.39.11-.79.18-1.18.16-1,.33-2,.52-2.94a87.17,87.17,0,0,1,2.66-10.19q.81-2.46,1.75-4.86l.2-.48c.05-.14.14-.36.2-.49l.06-.16-.05.12c.42-.93.83-1.85,1.27-2.77a83.08,83.08,0,0,1,5.6-9.9c.55-.83,1.12-1.65,1.7-2.45l.81-1.1.46-.6c1.45-1.8,3-3.54,4.57-5.22a108.57,108.57,0,0,1,9.3-8.64c.83-.7,1.68-1.38,2.53-2.06l.86-.68.47-.36q2.63-2,5.28-3.89l1.41-1h0c4.94-3.49,10-6.87,15-10.32,9.08-6.27,18-12.81,25.63-20.79C110,63.67,122.44,42.18,115.34,21.66,111.85,11.55,103.93,3.22,93.3.73A26.35,26.35,0,0,0,66.94,9.2C60.72,16.65,58.26,26,57.06,35.46c-1.42,11-1.13,22.18-1.23,33.27,0,4.61-.14,9.22-.24,13.83a1.11,1.11,0,0,0,1.76.92c4.51-3.28,8.91-6.63,13.08-10.32a1.12,1.12,0,0,0,.37-.82c.09-7,.2-14,.37-21.06.08-2.82.19-5.64.37-8.45.1-1.44.21-2.88.34-4.31.06-.57.13-1.13.18-1.7,0-.17,0-.28,0-.37s0-.2.06-.35a54.53,54.53,0,0,1,3-11.67c0,.09.65-1.33.82-1.66.52-1,1.12-1.88,1.71-2.81a2,2,0,0,1,.16-.23c.22-.26.44-.52.67-.77s2-1.84,1.65-1.61A24.64,24.64,0,0,1,82.32,16c.22-.12.84-.34.92-.37l.83-.25q.53-.13,1.05-.24c.16,0,.36,0,.46,0,.6,0,1.19,0,1.79,0,.31,0,.61,0,.92.05,1,.2,2,.5,3.06.79l.67.25c.29.14.58.28.86.43.54.29,1.06.59,1.58.92l.63.42,1,.83c.54.49,1,1,1.54,1.55l.44.52c.35.48.67,1,1,1.46a24.85,24.85,0,0,1,1.4,2.65v0l.1.31c.22.62.43,1.23.61,1.87a30.06,30.06,0,0,1,.77,3.41c0,.1.07.68.07.78,0,.53.07,1.06.09,1.59a35.2,35.2,0,0,1-.08,4c0,.45-.08.9-.13,1.35q0,.19-.12.57c-.29,1.39-.6,2.77-1,4.13a50,50,0,0,1-6.55,13.36,90,90,0,0,1-17.86,19.4c-1.9,1.59-3,2.45-4.16,3.33L70.7,80.22c-1.26.93-2.51,1.85-3.78,2.75-3.68,2.62-7.41,5.15-11.13,7.69l-.35.24a265.4,265.4,0,0,0-22,16.28A92.31,92.31,0,0,0,1.48,195a78.43,78.43,0,0,0,19.38,39.33,73.63,73.63,0,0,0,41.25,22,82,82,0,0,0,9.32,1C70.22,252.26,69,247.1,67.76,241.93ZM78,19.56Z"/><path class="cls-1" d="M21.28,147.93c-.07.16-.13.32-.2.49s-.08.23.21-.53h0Z"/><path class="cls-1" d="M64.24,194.59h0a25.15,25.15,0,0,0,15.08-1.49h0q-3.76-21.28-6-42.68-.78-7.62-1.35-15.28-1-13.5-1.32-27.13a1.26,1.26,0,0,0-2-1c-4.18,3.08-8.4,6-12.38,9.32a1.26,1.26,0,0,0-.46,1q.36,8.75,1,17.48c.14,1.85.3,3.71.45,5.56Q58,148.71,58.89,157h0Q61,175.86,64.24,194.59Zm-5.13-37.76.26-.18a1.71,1.71,0,0,1,.23-.13ZM62,155.06l.26-.15Zm4.62-2.32,0,0h0l0,0Zm-1.55.72,0,0Zm.23-.11.1,0Zm.29-.13.29-.14ZM66,153l.17-.07Zm.31-.14.11-.05Zm.21-.1.08,0Z"/><path class="cls-1" d="M46.82,174.73c0-.27,0-.42,0-.51s.08-.26.15-.55c.26-1,.47-2,.79-3,.14-.44.29-.87.45-1.31.08-.2.19-.49.22-.55a32.45,32.45,0,0,1,1.73-3.17c.25-.4.52-.78.78-1.18.15-.22.31-.44.47-.65.62-.76,1.28-1.49,2-2.2a.65.65,0,0,0,.17-.54c-.94-5.36-1.84-10.67-2.43-16a.62.62,0,0,0-1-.45,47.37,47.37,0,0,0-12.5,12.47,36.87,36.87,0,0,0-4.6,30.87c4.83,15.69,19.34,25.58,34.87,26.38a39,39,0,0,0,14.81-2.09l.22-.08A32.6,32.6,0,0,0,102.31,194c1.63-3.75,1.11-8.14-2.72-10.38-3.21-1.87-8.75-1.06-10.39,2.72a34.69,34.69,0,0,1-3,5.63c0-.12-1,1.23-1.19,1.43A25.35,25.35,0,0,1,83,195.23c-.08,0-1.14.77-1.43.94-.52.31-1.06.57-1.6.84-.23.11-.47.23-.7.36h0a10.8,10.8,0,0,0-1.45.5c-1,.3-2,.56-3,.77-.62.13-1.24.24-1.87.34.28-.06-1.35.14-1.76.17a30.87,30.87,0,0,1-3.47,0c-.51,0-1-.06-1.54-.11h0c-.34-.05-.68-.11-1-.18l-.2-.05a31.28,31.28,0,0,1-3.16-.84c-.49-.16-1-.33-1.46-.52.31.12,1.08.54-.32-.14-.93-.45-1.84-.92-2.73-1.45-.55-.33-1.09-.68-1.62-1-.19-.13-.73-.55-.86-.64a29.51,29.51,0,0,1-2.31-2.16c-.36-.37-.7-.75-1-1.14a1.38,1.38,0,0,0-.26-.26l-.3-.45a30.26,30.26,0,0,1-1.7-2.72A13.46,13.46,0,0,1,48.07,185c-.32-1-.64-2-.88-3-.15-.64-.28-1.27-.38-1.92,0-.06,0-.16,0-.3-.06-1.17-.12-2.32-.07-3.49C46.74,175.76,46.78,175.25,46.82,174.73Z"/><path class="cls-1" d="M56.86,158.4s-.08,0-.34.25Z"/><path class="cls-1" d="M122.63,282.74q-9.76,2.11-19.4,4.7-5.28-15.85-9.77-32-2-7.25-3.86-14.53l-.66.13a.69.69,0,0,0,.49-.83q-3.06-12.11-5.65-24.3a.7.7,0,0,0-.91-.51A39.17,39.17,0,0,1,69.6,218a.71.71,0,0,0-.71.85q2.44,11.57,5.3,23a.69.69,0,0,0,.64.53h-.51q1.89,7.54,4,15Q82.92,274.37,88.45,291c.06.2.13.4.2.6q-9.84,3-19.53,6.56c-3.85,1.4-6.44,5.15-5.3,9.33,1,3.71,5.47,6.71,9.34,5.3Q83.3,309.13,93.61,306c4,11.26,8.41,22.42,13.3,33.33.3.69.61,1.38.93,2.06,1.75,3.7,7.07,4.66,10.39,2.72,3.79-2.22,4.47-6.66,2.72-10.38-.37-.79-.72-1.57-1.07-2.36s-.83-1.87-1.23-2.8c-.26-.59-.51-1.19-.77-1.79-.12-.29-.24-.58-.37-.87,0,.09.07.15.1.23-3.34-8-6.45-16.13-9.39-24.3,6.11-1.62,12.26-3.12,18.44-4.46,4-.86,6.34-5.54,5.3-9.33A7.73,7.73,0,0,0,122.63,282.74ZM86.89,241.49l.78-.16ZM76,242.42h0Z"/><path class="cls-1" d="M22.84,89.68a3.89,3.89,0,0,0,3.66-4.81,13.09,13.09,0,0,0-.5-2,3.6,3.6,0,0,0,.59-2.08q-.09-18-1.91-36L26.76,46c4.34,2.24,8.18-4.31,3.83-6.55l-9.16-4.73c-3.94-2-7.48,3.19-4.81,5.84q2,17.37,2.32,34.85c-5.11-1.56-10.86-2-12,4.14C5.42,87.89,16.74,90.38,22.84,89.68Z"/><path class="cls-1" d="M135.8,253.63a7.57,7.57,0,0,0-7.66,2.36,7,7,0,0,0-.85,8.25c.09.14.2.27.29.41a7,7,0,0,0,2.59,2.59,7.75,7.75,0,0,0,7.63-.21,7.2,7.2,0,0,0,3.19-7.68A7.65,7.65,0,0,0,135.8,253.63Z"/><path class="cls-1" d="M38.89,265.87A172.21,172.21,0,0,1,20,265.34a3.09,3.09,0,0,0-3.32,1.91,3.87,3.87,0,0,0-.8,2.1q-1.29,16.25-2.59,32.5a13,13,0,0,0-8.41,4.52,3.85,3.85,0,0,0-.79,4.14,3.78,3.78,0,0,0,3.47,2.34,17.52,17.52,0,0,0,11.5-5,3.58,3.58,0,0,0,1-1.74,3.76,3.76,0,0,0,.59-1.79l1.11-13.88,13.08.15q-.06,7.74-.14,15.49a12.89,12.89,0,0,0-8,4.45,3.88,3.88,0,0,0-.79,4.15A3.77,3.77,0,0,0,29.45,317a17.52,17.52,0,0,0,11.51-5,3.5,3.5,0,0,0,1.12-2.47,4,4,0,0,0,.24-1.29l.36-38.51A3.83,3.83,0,0,0,38.89,265.87ZM22.41,282.82l.78-9.67q5.93.38,11.86.35,0,4.74-.08,9.46Z"/><path class="cls-1" d="M117.22,92.13,108.07,94c-4.78,1-2.76,8.31,2,7.32l7.13-1.47v3.83c-2.79.79-5.57,1.62-8.33,2.51-4.63,1.48-2.65,8.81,2,7.32,2.09-.68,4.2-1.31,6.31-1.93v4.81c0,4.89,7.59,4.9,7.59,0v-6.88q2.53-.65,5.08-1.24v5.15c0,4.88,7.58,4.89,7.58,0v-6.79c2.31-.45,4.62-.89,6.93-1.28,4.81-.81,2.77-8.12-2-7.32-1.65.28-3.28.58-4.92.89V95.68l7.66-1.59c4.78-1,2.76-8.3-2-7.32l-5.65,1.17V81.41c0-4.88-7.58-4.89-7.58,0v8.1l-5.08,1V82.9c0-4.88-7.59-4.89-7.59,0Zm12.67,5.12v3.26c-1.7.37-3.39.78-5.08,1.19V98.3Z"/></g></g></svg>