<svg xmlns="http://www.w3.org/2000/svg" xmlns:xlink="http://www.w3.org/1999/xlink" viewBox="0 0 331.56 258.02"><defs><style>.cls-1{fill:none;}.cls-2{isolation:isolate;}.cls-3{fill:#fd6b6b;}.cls-4{mix-blend-mode:multiply;}.cls-5{clip-path:url(#clip-path);}.cls-6{fill:#e5aae4;}.cls-7{fill:#e4a06b;}</style><clipPath id="clip-path" transform="translate(71.83 11.34)"><path class="cls-1" d="M133.23,26.8q-2-2.44-4.27-4.73C114.88,7.86,95.41,0,74.13,0h-.61C32.29.26.05,31.56,0,71.5A73.4,73.4,0,0,0,1.65,87.17,70.19,70.19,0,0,0,22.71,124a74.31,74.31,0,0,0,35.75,18l.13,19.32-15.55.1a6.18,6.18,0,0,0-6.14,6.21l.14,21.6a6.18,6.18,0,0,0,6.21,6.14l10.81-.07,4.74,0,.12,19.09a6.18,6.18,0,0,0,6.22,6.14l21.6-.14a6.17,6.17,0,0,0,6.13-6.21l-.12-19.09,16.16-.11a6.19,6.19,0,0,0,6.14-6.21l-.14-21.6a6.18,6.18,0,0,0-6.22-6.14l-7.66,0-8.49.05-.12-19.42a73.72,73.72,0,0,0,36.38-20.1,71,71,0,0,0,20.36-49.48A69.93,69.93,0,0,0,133.23,26.8ZM48.76,47.59A36.32,36.32,0,0,1,74,37.39H75.2a36.75,36.75,0,0,1,4.81.44,39.08,39.08,0,0,1,22.2,11.73c6.25,6.61,9.56,14.72,9.3,22.82C110.93,91,94.32,106.08,74.4,106.2H74A36.08,36.08,0,0,1,48.18,95.78a34.15,34.15,0,0,1-9.72-24.52A33.17,33.17,0,0,1,48.38,48Z"/></clipPath></defs><title>logo-ecofff.svgRecurso 8</title><g class="cls-2"><g id="Capa_2" data-name="Capa 2"><g id="Layer_1" data-name="Layer 1"><path class="cls-3" d="M133.23,26.8q-2-2.44-4.27-4.73C114.88,7.86,95.41,0,74.13,0h-.61C32.29.26.05,31.56,0,71.5A73.4,73.4,0,0,0,1.65,87.17,70.19,70.19,0,0,0,22.71,124a74.31,74.31,0,0,0,35.75,18l.13,19.32-15.55.1a6.18,6.18,0,0,0-6.14,6.21l.14,21.6a6.18,6.18,0,0,0,6.21,6.14l10.81-.07,4.74,0,.12,19.09a6.18,6.18,0,0,0,6.22,6.14l21.6-.14a6.17,6.17,0,0,0,6.13-6.21l-.12-19.09,16.16-.11a6.19,6.19,0,0,0,6.14-6.21l-.14-21.6a6.18,6.18,0,0,0-6.22-6.14l-7.66,0-8.49.05-.12-19.42a73.72,73.72,0,0,0,36.38-20.1,71,71,0,0,0,20.36-49.48A69.93,69.93,0,0,0,133.23,26.8ZM48.76,47.59A36.32,36.32,0,0,1,74,37.39H75.2a36.75,36.75,0,0,1,4.81.44,39.08,39.08,0,0,1,22.2,11.73c6.25,6.61,9.56,14.72,9.3,22.82C110.93,91,94.32,106.08,74.4,106.2H74A36.08,36.08,0,0,1,48.18,95.78a34.15,34.15,0,0,1-9.72-24.52A33.17,33.17,0,0,1,48.38,48Z" transform="translate(71.83 11.34)"/><g class="cls-4"><g class="cls-5"><path class="cls-6" d="M-68.31,97.52a3.47,3.47,0,0,1,3.76,1.67C-54,121,37.56,71.45,29.54,49.18c-2.34-6.41-15.69-4.29-31.06-1.89-16,2.51-35,6-35.56-8-1.14-23.73,64.44-50.85,71.48-23A4.42,4.42,0,0,1,31,21.45,3.4,3.4,0,0,1,26.9,19c-5-19.14-57.12,2.71-56.36,19.06.25,5.85,6.92,4.79,27,1.73,15.85-2.49,35-5.75,39.26,6.06C47.48,76-57.06,132.41-71.45,103.31-72.59,101.12-71,98.05-68.31,97.52Z" transform="translate(71.83 11.34)"/><path class="cls-6" d="M35.15,54.1a4.41,4.41,0,0,1,3.6-4.55l.84,0a19.44,19.44,0,0,0,10.28-2.72,22.5,22.5,0,0,1,.21-6.18c3-16.71,17-20.42,20.78-14.17C74.62,32.32,68.3,42,59.7,48.83c3.87,3,11.77.72,21.87-11.37,3.39-4.15,9.33.47,5.58,4.69C73.31,58.58,59,60.41,52.84,53.42c-4.62,2.47-9.8,4.08-14.65,3.82A3.48,3.48,0,0,1,35.15,54.1ZM64.49,31c-.95-1.26-5.16.41-6.89,10,0,.24-.09.38-.08.5C62.71,37.17,65.47,32.66,64.49,31Z" transform="translate(71.83 11.34)"/><path class="cls-6" d="M81.68,37.44a166.29,166.29,0,0,0,19-28.15A78.94,78.94,0,0,1,105.18-3.5c3.11-6.15,9.59-5.13,7.69,2.47a72.63,72.63,0,0,1-5.21,12.7C104,25.27,102.37,39.43,106,39.91c2,.34,6.65-4.18,11-9.37,3.28-4.13,9.22.49,5.47,4.71C117.94,40.72,110.26,48.6,104,47.77s-7.75-9-7.2-18.22a150.26,150.26,0,0,1-9.69,12.6C83.87,46.29,77.93,41.66,81.68,37.44Z" transform="translate(71.83 11.34)"/><path class="cls-6" d="M129.88,30.57l2.81-8.26a123.25,123.25,0,0,1-10.14,12.94c-2.2,2.6-6.27,1.58-6.54-1.62a5.21,5.21,0,0,1,1.06-3.21c9.88-10.36,20.67-30,25.3-38.17,2.43-4.2,5.44-4.31,7.29-2.38l.75,1.78a12.8,12.8,0,0,1-.65,3.74c-1.14,3.71-3,9.24-5.23,15.46-2.53,7.24-5.35,15.38-7.85,23.09,4.87-1.07,11.21-4.6,16.16-10.38,3.39-4.15,9.23.61,5.46,4.72a41.71,41.71,0,0,1-20.28,13c3.3,12-2,27.11-11.19,23.5-5.72-2-3.18-13.47.69-26.39l-.9-.66C123.63,35.16,126.48,30.27,129.88,30.57ZM132,49.67c-1.26,5.06-1.76,7.81-1.63,7.9C131.33,58,132.35,54.29,132,49.67Z" transform="translate(71.83 11.34)"/><path class="cls-7" d="M42.5,131.26a4.72,4.72,0,0,1-3.12-1c-6.14-6.65-48.24-7.56-74.47,4.17-7.85,3.52-12.19-.53-9.54-8C-39.78,113.06-26.16,74-14,58.54c2.93-4.18,9.51.52,6.21,4.61-11,13.68-23.27,48.7-28.71,63.59,27.71-11.49,72.18-11.26,81.33-2A3.81,3.81,0,0,1,42.5,131.26Z" transform="translate(71.83 11.34)"/><path class="cls-7" d="M109.83,67.67a3.94,3.94,0,0,0-4.17-3.35,3.84,3.84,0,0,0-3.52,4.35c1.26,6.34-26,35-28.84,32.94-1.43-1.19-1.65-6.78-1.77-12.5-.13-1.65-.15-3.32-.26-4.63A3.76,3.76,0,0,0,70.07,82c-3.61-4.61-9.47-3.51-17-1.38A53.42,53.42,0,0,1,45,82.5a10.17,10.17,0,0,0-1.76-2.24c-4.07-3.6-7.81-3.29-10-1.68a5.59,5.59,0,0,0-2,3.16c-14.41,4.9-23.4,28.19-7.9,33.46C35.67,119.3,46.76,102.27,47,90.09a84.87,84.87,0,0,0,8.69-2.16c4.62-1.35,6.89-2,8-1.49,0,.78.06,1.65.14,2.61.26,6.06.4,15.11,4.95,18.67C78.41,114.79,111.33,78.4,109.83,67.67Zm-84,40.16c-8.24-2.65-1-17.57,9-19.12a8.3,8.3,0,0,0,2.64,1,11.53,11.53,0,0,0,1.85.44C39.64,98.45,32.36,110.15,25.85,107.83Z" transform="translate(71.83 11.34)"/><path class="cls-7" d="M95,97.9a3.86,3.86,0,0,1,3.66-4.12l.85,0a19,19,0,0,0,10.44-1.58,21.51,21.51,0,0,1,.22-6.1c3-16.24,17.29-18.39,21.12-11.79,3.8,6.25-2.62,15.14-11.37,21,3.93,3.38,11.95,2,22.22-8.89,3.45-3.74,9.47,1.48,5.66,5.26-14.07,14.77-28.63,15-34.85,7.44a28.15,28.15,0,0,1-14.87,2.19A4,4,0,0,1,95,97.9Zm29.81-19.66c-1-1.36-5.23-.17-7,9.17,0,.24-.1.36-.09.48C123,84.11,125.79,79.94,124.79,78.24Z" transform="translate(71.83 11.34)"/><path class="cls-7" d="M163.8,69.94c-1.11-3.78-.25-7.77-.81-11.64a13,13,0,0,0-4.39-8.14c-5.56-4.66-12.67-1.49-14.16,5.27-.77,3.5-.45,7.22-.43,10.76l.05,12.33.12,25.62c0,3,4,4.83,6.12,2.54l19-20.13c5.63-6,12.69-12,15.78-19.78a8.91,8.91,0,0,0-11.49-11.71c-7,2.67-11.93,8.24-16.36,14-1.19,1.55-.23,4,1.28,4.91,1.84,1.1,3.74.24,4.91-1.29,3.19-4.16,6.95-8.47,11.87-10.62,1.43-.63,3.52-.8,3.37,1.39-.08,1.11-1.07,2.46-1.62,3.38a32.6,32.6,0,0,1-2.87,4C169.84,76,165,80.73,160.31,85.64l-15.08,16,6.12,2.54-.18-40.32c0-1.44-.64-11.6,3.09-7.92,1.83,1.8,1.82,4.31,1.82,6.71,0,3.13-.09,6.2.8,9.23,1.3,4.42,8.23,2.54,6.92-1.9Z" transform="translate(71.83 11.34)"/><path class="cls-6" d="M5.65,208.53a3.46,3.46,0,0,1,3.76,1.68c10.52,21.79,102.12-27.74,94.1-50-2.35-6.41-15.7-4.28-31.07-1.89-16,2.52-35,6-35.56-8-1.14-23.74,64.44-50.86,71.48-23a4.41,4.41,0,0,1-3.43,5.12,3.41,3.41,0,0,1-4.07-2.46c-5-19.13-57.12,2.72-56.36,19.06.25,5.85,6.92,4.79,27,1.73,15.85-2.49,35-5.75,39.26,6.07C121.45,187,16.9,243.42,2.52,214.32,1.37,212.14,2.92,209.07,5.65,208.53Z" transform="translate(71.83 11.34)"/><path class="cls-6" d="M109.11,165.12a4.42,4.42,0,0,1,3.6-4.56l.84,0a19.52,19.52,0,0,0,10.28-2.73,22.52,22.52,0,0,1,.21-6.18c2.95-16.71,17-20.41,20.79-14.17,3.75,5.89-2.57,15.55-11.17,22.41,3.87,3,11.77.71,21.87-11.37,3.39-4.16,9.33.46,5.58,4.69-13.84,16.42-28.17,18.26-34.31,11.27-4.62,2.46-9.8,4.07-14.65,3.82A3.5,3.5,0,0,1,109.11,165.12Zm29.34-23.06c-.95-1.26-5.16.4-6.89,10,0,.24-.09.38-.08.5C136.67,148.18,139.43,143.67,138.45,142.06Z" transform="translate(71.83 11.34)"/><path class="cls-6" d="M155.65,148.46a167.18,167.18,0,0,0,19-28.16,79.29,79.29,0,0,1,4.48-12.79c3.11-6.15,9.6-5.12,7.7,2.47a73.34,73.34,0,0,1-5.22,12.7c-3.69,13.6-5.28,27.76-1.62,28.25,2,.34,6.65-4.19,11.05-9.38,3.27-4.13,9.21.49,5.46,4.71-4.61,5.48-12.28,13.36-18.51,12.52s-7.75-9-7.2-18.22a150.34,150.34,0,0,1-9.69,12.61C157.83,157.3,151.89,152.68,155.65,148.46Z" transform="translate(71.83 11.34)"/><path class="cls-6" d="M203.85,141.58l2.81-8.25a125.52,125.52,0,0,1-10.15,12.93c-2.2,2.6-6.27,1.59-6.53-1.61a5.18,5.18,0,0,1,1.05-3.22c9.88-10.35,20.67-30,25.31-38.16,2.42-4.21,5.43-4.31,7.28-2.39l.75,1.78a12.76,12.76,0,0,1-.65,3.74c-1.14,3.71-3,9.25-5.23,15.47-2.53,7.24-5.35,15.37-7.84,23.08,4.86-1.07,11.2-4.59,16.15-10.37,3.4-4.16,9.23.6,5.47,4.71a41.68,41.68,0,0,1-20.29,13c3.3,12-1.95,27.11-11.19,23.49-5.72-2-3.18-13.47.69-26.38l-.9-.67C197.59,146.17,200.44,141.28,203.85,141.58Zm2.08,19.1c-1.27,5.06-1.77,7.81-1.64,7.91C205.29,169,206.31,165.3,205.93,160.68Z" transform="translate(71.83 11.34)"/><path class="cls-7" d="M116.46,242.27a4.72,4.72,0,0,1-3.12-1.05c-6.14-6.64-48.24-7.55-74.47,4.18-7.85,3.51-12.19-.54-9.54-8C34.18,224.08,47.8,185,60,169.55c2.93-4.18,9.51.52,6.21,4.62-11,13.68-23.27,48.7-28.71,63.59,27.71-11.5,72.18-11.27,81.33-2A3.81,3.81,0,0,1,116.46,242.27Z" transform="translate(71.83 11.34)"/><path class="cls-7" d="M183.79,178.69a3.94,3.94,0,0,0-4.17-3.36,3.85,3.85,0,0,0-3.52,4.35c1.26,6.34-26,35-28.83,32.95-1.44-1.2-1.66-6.78-1.77-12.5-.14-1.66-.16-3.33-.27-4.63A3.71,3.71,0,0,0,144,193c-3.61-4.61-9.47-3.52-17-1.39a52.4,52.4,0,0,1-8.1,1.87,10.52,10.52,0,0,0-1.77-2.24c-4.07-3.59-7.8-3.28-10-1.67a5.61,5.61,0,0,0-2,3.15c-14.41,4.9-23.4,28.2-7.9,33.47,12.36,4.1,23.45-12.93,23.65-25.12a87,87,0,0,0,8.69-2.15c4.62-1.36,6.9-2,8-1.49,0,.78.06,1.64.14,2.6.26,6.06.41,15.12,4.95,18.68C152.37,225.8,185.29,189.42,183.79,178.69Zm-84,40.16c-8.24-2.66-1-17.58,9-19.12a8.54,8.54,0,0,0,2.64,1,10.45,10.45,0,0,0,1.86.44C113.6,209.47,106.32,221.17,99.81,218.85Z" transform="translate(71.83 11.34)"/><path class="cls-7" d="M168.94,208.91a3.87,3.87,0,0,1,3.66-4.12l.86.05a18.94,18.94,0,0,0,10.43-1.59,21.9,21.9,0,0,1,.22-6.1c3-16.24,17.29-18.38,21.12-11.78,3.8,6.24-2.62,15.13-11.36,21,3.92,3.37,11.94,2,22.21-8.89,3.45-3.75,9.48,1.48,5.66,5.25-14.07,14.78-28.63,15-34.85,7.44A28.05,28.05,0,0,1,172,212.35,4,4,0,0,1,168.94,208.91Zm29.82-19.66c-1-1.35-5.24-.16-7,9.17,0,.24-.09.37-.08.49C196.94,195.13,199.75,191,198.76,189.25Z" transform="translate(71.83 11.34)"/><path class="cls-7" d="M237.76,181c-1.11-3.77-.25-7.77-.81-11.63a13,13,0,0,0-4.39-8.15c-5.55-4.66-12.67-1.48-14.16,5.28-.77,3.49-.45,7.21-.43,10.76l.05,12.33.12,25.61c0,3,4,4.83,6.12,2.54l19-20.13c5.63-6,12.7-12,15.78-19.78a8.91,8.91,0,0,0-11.49-11.71c-7,2.67-11.93,8.25-16.36,14-1.19,1.55-.23,4,1.28,4.91,1.84,1.1,3.74.24,4.91-1.29,3.2-4.16,6.95-8.47,11.87-10.62,1.43-.62,3.53-.79,3.37,1.4-.07,1.11-1.06,2.46-1.62,3.37a31.84,31.84,0,0,1-2.87,3.95c-4.34,5.17-9.24,9.94-13.88,14.85l-15.08,16,6.12,2.53-.18-40.32c0-1.44-.64-11.59,3.09-7.92,1.83,1.81,1.83,4.32,1.82,6.72,0,3.12-.09,6.19.81,9.23,1.29,4.42,8.22,2.54,6.91-1.91Z" transform="translate(71.83 11.34)"/></g></g></g></g></g></svg>